<mxfile host="app.diagrams.net" agent="Mozilla/5.0 (X11; Linux x86_64) AppleWebKit/537.36 (KHTML, like Gecko) Chrome/138.0.0.0 Safari/537.36" version="28.0.7">
  <diagram name="PÃ¡gina-1" id="VIdHWq8J4FAt9f2do1Mo">
    <mxGraphModel dx="1360" dy="827" grid="1" gridSize="10" guides="1" tooltips="1" connect="1" arrows="1" fold="1" page="1" pageScale="1" pageWidth="827" pageHeight="1169" math="0" shadow="0">
      <root>
        <mxCell id="0" />
        <mxCell id="1" parent="0" />
        <mxCell id="FJTxE-dm11oi-WkTUCZ7-1" style="edgeStyle=orthogonalEdgeStyle;rounded=0;orthogonalLoop=1;jettySize=auto;html=1;exitX=0.75;exitY=0;exitDx=0;exitDy=0;" edge="1" parent="1" source="FJTxE-dm11oi-WkTUCZ7-4" target="FJTxE-dm11oi-WkTUCZ7-6">
          <mxGeometry relative="1" as="geometry" />
        </mxCell>
        <mxCell id="FJTxE-dm11oi-WkTUCZ7-2" style="edgeStyle=orthogonalEdgeStyle;rounded=0;orthogonalLoop=1;jettySize=auto;html=1;exitX=1;exitY=1;exitDx=0;exitDy=0;entryX=1;entryY=0;entryDx=0;entryDy=0;" edge="1" parent="1" source="FJTxE-dm11oi-WkTUCZ7-26" target="FJTxE-dm11oi-WkTUCZ7-18">
          <mxGeometry relative="1" as="geometry" />
        </mxCell>
        <mxCell id="FJTxE-dm11oi-WkTUCZ7-38" value="N" style="edgeLabel;html=1;align=center;verticalAlign=middle;resizable=0;points=[];" vertex="1" connectable="0" parent="FJTxE-dm11oi-WkTUCZ7-2">
          <mxGeometry x="0.2211" y="2" relative="1" as="geometry">
            <mxPoint as="offset" />
          </mxGeometry>
        </mxCell>
        <mxCell id="FJTxE-dm11oi-WkTUCZ7-3" style="edgeStyle=orthogonalEdgeStyle;rounded=0;orthogonalLoop=1;jettySize=auto;html=1;exitX=1;exitY=0.25;exitDx=0;exitDy=0;entryX=0;entryY=0.5;entryDx=0;entryDy=0;" edge="1" parent="1" source="FJTxE-dm11oi-WkTUCZ7-4" target="FJTxE-dm11oi-WkTUCZ7-29">
          <mxGeometry relative="1" as="geometry" />
        </mxCell>
        <mxCell id="FJTxE-dm11oi-WkTUCZ7-4" value="Cliente" style="rounded=0;whiteSpace=wrap;html=1;fillColor=#ffcd28;strokeColor=#d79b00;gradientColor=#ffa500;" vertex="1" parent="1">
          <mxGeometry x="320" y="150" width="120" height="60" as="geometry" />
        </mxCell>
        <mxCell id="FJTxE-dm11oi-WkTUCZ7-5" value="id" style="ellipse;whiteSpace=wrap;html=1;fillColor=#f5f5f5;gradientColor=#b3b3b3;strokeColor=#666666;" vertex="1" parent="1">
          <mxGeometry x="200" y="70" width="120" height="80" as="geometry" />
        </mxCell>
        <mxCell id="FJTxE-dm11oi-WkTUCZ7-6" value="Nombre_cliente" style="ellipse;whiteSpace=wrap;html=1;" vertex="1" parent="1">
          <mxGeometry x="350" y="30" width="120" height="80" as="geometry" />
        </mxCell>
        <mxCell id="FJTxE-dm11oi-WkTUCZ7-7" value="Direccion" style="ellipse;whiteSpace=wrap;html=1;" vertex="1" parent="1">
          <mxGeometry x="310" y="250" width="120" height="80" as="geometry" />
        </mxCell>
        <mxCell id="FJTxE-dm11oi-WkTUCZ7-8" style="edgeStyle=orthogonalEdgeStyle;rounded=0;orthogonalLoop=1;jettySize=auto;html=1;exitX=0.5;exitY=0;exitDx=0;exitDy=0;entryX=0.5;entryY=1;entryDx=0;entryDy=0;" edge="1" parent="1" source="FJTxE-dm11oi-WkTUCZ7-12" target="FJTxE-dm11oi-WkTUCZ7-15">
          <mxGeometry relative="1" as="geometry" />
        </mxCell>
        <mxCell id="FJTxE-dm11oi-WkTUCZ7-9" style="edgeStyle=orthogonalEdgeStyle;rounded=0;orthogonalLoop=1;jettySize=auto;html=1;exitX=0;exitY=1;exitDx=0;exitDy=0;entryX=1;entryY=0;entryDx=0;entryDy=0;" edge="1" parent="1" source="FJTxE-dm11oi-WkTUCZ7-12" target="FJTxE-dm11oi-WkTUCZ7-13">
          <mxGeometry relative="1" as="geometry" />
        </mxCell>
        <mxCell id="FJTxE-dm11oi-WkTUCZ7-10" style="edgeStyle=orthogonalEdgeStyle;rounded=0;orthogonalLoop=1;jettySize=auto;html=1;exitX=1;exitY=1;exitDx=0;exitDy=0;entryX=0;entryY=0;entryDx=0;entryDy=0;" edge="1" parent="1" source="FJTxE-dm11oi-WkTUCZ7-12" target="FJTxE-dm11oi-WkTUCZ7-14">
          <mxGeometry relative="1" as="geometry" />
        </mxCell>
        <mxCell id="FJTxE-dm11oi-WkTUCZ7-11" style="edgeStyle=orthogonalEdgeStyle;rounded=0;orthogonalLoop=1;jettySize=auto;html=1;exitX=0.5;exitY=1;exitDx=0;exitDy=0;entryX=1;entryY=0.25;entryDx=0;entryDy=0;" edge="1" parent="1" source="FJTxE-dm11oi-WkTUCZ7-28" target="FJTxE-dm11oi-WkTUCZ7-18">
          <mxGeometry relative="1" as="geometry" />
        </mxCell>
        <mxCell id="FJTxE-dm11oi-WkTUCZ7-12" value="Repartidor" style="rounded=0;whiteSpace=wrap;html=1;fillColor=#ffcd28;strokeColor=#d79b00;gradientColor=#ffa500;" vertex="1" parent="1">
          <mxGeometry x="707" y="260" width="120" height="60" as="geometry" />
        </mxCell>
        <mxCell id="FJTxE-dm11oi-WkTUCZ7-13" value="Id" style="ellipse;whiteSpace=wrap;html=1;fillColor=#f5f5f5;gradientColor=#b3b3b3;strokeColor=#666666;" vertex="1" parent="1">
          <mxGeometry x="570" y="330" width="120" height="80" as="geometry" />
        </mxCell>
        <mxCell id="FJTxE-dm11oi-WkTUCZ7-14" value="Nombre_repartidor" style="ellipse;whiteSpace=wrap;html=1;" vertex="1" parent="1">
          <mxGeometry x="827" y="350" width="120" height="80" as="geometry" />
        </mxCell>
        <mxCell id="FJTxE-dm11oi-WkTUCZ7-15" value="Numero_placa" style="ellipse;whiteSpace=wrap;html=1;" vertex="1" parent="1">
          <mxGeometry x="707" y="140" width="120" height="80" as="geometry" />
        </mxCell>
        <mxCell id="FJTxE-dm11oi-WkTUCZ7-16" style="edgeStyle=orthogonalEdgeStyle;rounded=0;orthogonalLoop=1;jettySize=auto;html=1;exitX=0;exitY=0.5;exitDx=0;exitDy=0;entryX=1;entryY=0.5;entryDx=0;entryDy=0;" edge="1" parent="1" source="FJTxE-dm11oi-WkTUCZ7-18" target="FJTxE-dm11oi-WkTUCZ7-19">
          <mxGeometry relative="1" as="geometry" />
        </mxCell>
        <mxCell id="FJTxE-dm11oi-WkTUCZ7-17" style="edgeStyle=orthogonalEdgeStyle;rounded=0;orthogonalLoop=1;jettySize=auto;html=1;exitX=1;exitY=0.5;exitDx=0;exitDy=0;entryX=0;entryY=1;entryDx=0;entryDy=0;" edge="1" parent="1" source="FJTxE-dm11oi-WkTUCZ7-18" target="FJTxE-dm11oi-WkTUCZ7-20">
          <mxGeometry relative="1" as="geometry" />
        </mxCell>
        <mxCell id="FJTxE-dm11oi-WkTUCZ7-18" value="Pedido" style="rounded=0;whiteSpace=wrap;html=1;fillColor=#ffcd28;strokeColor=#d79b00;gradientColor=#ffa500;" vertex="1" parent="1">
          <mxGeometry x="250" y="510" width="120" height="60" as="geometry" />
        </mxCell>
        <mxCell id="FJTxE-dm11oi-WkTUCZ7-19" value="Id Cliente" style="ellipse;whiteSpace=wrap;html=1;fillColor=#6a00ff;fontColor=#ffffff;strokeColor=#3700CC;" vertex="1" parent="1">
          <mxGeometry x="70" y="505" width="120" height="80" as="geometry" />
        </mxCell>
        <mxCell id="FJTxE-dm11oi-WkTUCZ7-20" value="Id Repartidor" style="ellipse;whiteSpace=wrap;html=1;fillColor=#6a00ff;strokeColor=#3700CC;fontColor=#ffffff;" vertex="1" parent="1">
          <mxGeometry x="410" y="570" width="120" height="80" as="geometry" />
        </mxCell>
        <mxCell id="FJTxE-dm11oi-WkTUCZ7-22" style="edgeStyle=orthogonalEdgeStyle;rounded=0;orthogonalLoop=1;jettySize=auto;html=1;exitX=0;exitY=0.25;exitDx=0;exitDy=0;entryX=0.617;entryY=1.033;entryDx=0;entryDy=0;entryPerimeter=0;" edge="1" parent="1" source="FJTxE-dm11oi-WkTUCZ7-4" target="FJTxE-dm11oi-WkTUCZ7-5">
          <mxGeometry relative="1" as="geometry" />
        </mxCell>
        <mxCell id="FJTxE-dm11oi-WkTUCZ7-23" style="edgeStyle=orthogonalEdgeStyle;rounded=0;orthogonalLoop=1;jettySize=auto;html=1;exitX=0.5;exitY=1;exitDx=0;exitDy=0;entryX=0.593;entryY=0.003;entryDx=0;entryDy=0;entryPerimeter=0;" edge="1" parent="1" source="FJTxE-dm11oi-WkTUCZ7-4" target="FJTxE-dm11oi-WkTUCZ7-7">
          <mxGeometry relative="1" as="geometry" />
        </mxCell>
        <mxCell id="FJTxE-dm11oi-WkTUCZ7-24" style="edgeStyle=orthogonalEdgeStyle;rounded=0;orthogonalLoop=1;jettySize=auto;html=1;exitX=0.5;exitY=0;exitDx=0;exitDy=0;" edge="1" parent="1" source="FJTxE-dm11oi-WkTUCZ7-18" target="FJTxE-dm11oi-WkTUCZ7-36">
          <mxGeometry relative="1" as="geometry">
            <mxPoint x="288.44000000000005" y="465.44000000000005" as="targetPoint" />
            <Array as="points">
              <mxPoint x="310" y="488" />
              <mxPoint x="288" y="488" />
              <mxPoint x="288" y="425" />
            </Array>
          </mxGeometry>
        </mxCell>
        <mxCell id="FJTxE-dm11oi-WkTUCZ7-25" value="" style="edgeStyle=orthogonalEdgeStyle;rounded=0;orthogonalLoop=1;jettySize=auto;html=1;exitX=1;exitY=1;exitDx=0;exitDy=0;entryX=1;entryY=0;entryDx=0;entryDy=0;" edge="1" parent="1" source="FJTxE-dm11oi-WkTUCZ7-4" target="FJTxE-dm11oi-WkTUCZ7-26">
          <mxGeometry relative="1" as="geometry">
            <mxPoint x="440" y="210" as="sourcePoint" />
            <mxPoint x="370" y="510" as="targetPoint" />
          </mxGeometry>
        </mxCell>
        <mxCell id="FJTxE-dm11oi-WkTUCZ7-37" value="1" style="edgeLabel;html=1;align=center;verticalAlign=middle;resizable=0;points=[];" vertex="1" connectable="0" parent="FJTxE-dm11oi-WkTUCZ7-25">
          <mxGeometry x="-0.5667" y="4" relative="1" as="geometry">
            <mxPoint as="offset" />
          </mxGeometry>
        </mxCell>
        <mxCell id="FJTxE-dm11oi-WkTUCZ7-26" value="Realiza" style="rhombus;whiteSpace=wrap;html=1;fillColor=#d5e8d4;gradientColor=#97d077;strokeColor=#82b366;" vertex="1" parent="1">
          <mxGeometry x="400" y="350" width="80" height="80" as="geometry" />
        </mxCell>
        <mxCell id="FJTxE-dm11oi-WkTUCZ7-27" value="" style="edgeStyle=orthogonalEdgeStyle;rounded=0;orthogonalLoop=1;jettySize=auto;html=1;exitX=0.5;exitY=1;exitDx=0;exitDy=0;entryX=1;entryY=0.25;entryDx=0;entryDy=0;" edge="1" parent="1" source="FJTxE-dm11oi-WkTUCZ7-12" target="FJTxE-dm11oi-WkTUCZ7-28">
          <mxGeometry relative="1" as="geometry">
            <mxPoint x="767" y="320" as="sourcePoint" />
            <mxPoint x="370" y="525" as="targetPoint" />
          </mxGeometry>
        </mxCell>
        <mxCell id="FJTxE-dm11oi-WkTUCZ7-28" value="Entrega" style="rhombus;whiteSpace=wrap;html=1;fillColor=#d5e8d4;gradientColor=#97d077;strokeColor=#82b366;" vertex="1" parent="1">
          <mxGeometry x="680" y="470" width="80" height="80" as="geometry" />
        </mxCell>
        <mxCell id="FJTxE-dm11oi-WkTUCZ7-29" value="Telefono" style="ellipse;whiteSpace=wrap;html=1;" vertex="1" parent="1">
          <mxGeometry x="480" y="120" width="120" height="90" as="geometry" />
        </mxCell>
        <mxCell id="FJTxE-dm11oi-WkTUCZ7-30" value="Telefono" style="ellipse;whiteSpace=wrap;html=1;" vertex="1" parent="1">
          <mxGeometry x="890" y="230" width="120" height="80" as="geometry" />
        </mxCell>
        <mxCell id="FJTxE-dm11oi-WkTUCZ7-31" style="edgeStyle=orthogonalEdgeStyle;rounded=0;orthogonalLoop=1;jettySize=auto;html=1;exitX=1;exitY=0.5;exitDx=0;exitDy=0;entryX=0.04;entryY=0.672;entryDx=0;entryDy=0;entryPerimeter=0;" edge="1" parent="1" source="FJTxE-dm11oi-WkTUCZ7-12" target="FJTxE-dm11oi-WkTUCZ7-30">
          <mxGeometry relative="1" as="geometry" />
        </mxCell>
        <mxCell id="FJTxE-dm11oi-WkTUCZ7-32" value="Fecha_pedido" style="ellipse;whiteSpace=wrap;html=1;" vertex="1" parent="1">
          <mxGeometry x="190" y="610" width="120" height="80" as="geometry" />
        </mxCell>
        <mxCell id="FJTxE-dm11oi-WkTUCZ7-33" style="edgeStyle=orthogonalEdgeStyle;rounded=0;orthogonalLoop=1;jettySize=auto;html=1;exitX=0.25;exitY=1;exitDx=0;exitDy=0;entryX=0.667;entryY=0;entryDx=0;entryDy=0;entryPerimeter=0;" edge="1" parent="1" source="FJTxE-dm11oi-WkTUCZ7-18" target="FJTxE-dm11oi-WkTUCZ7-32">
          <mxGeometry relative="1" as="geometry" />
        </mxCell>
        <mxCell id="FJTxE-dm11oi-WkTUCZ7-36" value="Id" style="ellipse;whiteSpace=wrap;html=1;align=center;fontStyle=4;gradientColor=light-dark(#000000,#999999);" vertex="1" parent="1">
          <mxGeometry x="140" y="390" width="100" height="70" as="geometry" />
        </mxCell>
      </root>
    </mxGraphModel>
  </diagram>
</mxfile>
